<svg width="60" height="50" viewBox="0 0 60 50" fill="none" xmlns="http://www.w3.org/2000/svg">
<g style="mix-blend-mode:screen">
<path d="M14.0928 38.3477C17.3282 41.5831 22.4623 41.9731 27.2387 40.9484C32.0881 39.9081 37.0925 37.3191 40.5613 33.8502C44.1411 30.2704 45.2611 26.2674 44.6266 22.3831C44.0078 18.5949 41.7557 15.1091 38.9627 12.3161C32.8216 6.17504 22.2377 7.54538 15.3703 14.4128C8.37609 21.407 8.06156 32.3165 14.0928 38.3477Z" stroke="#AFF220" stroke-width="3.29814"/>
</g>
<g style="mix-blend-mode:screen" filter="url(#filter0_f_1_1846)">
<path d="M13.2307 38.0481C19.3735 44.191 29.9674 42.8071 36.8445 35.93C43.7216 29.0528 45.1055 18.4589 38.9627 12.3161C32.8199 6.17327 22.226 7.55714 15.3488 14.4343C8.4717 21.3114 7.08783 31.9053 13.2307 38.0481Z" stroke="#AFF220" stroke-width="3.29814"/>
</g>
<g style="mix-blend-mode:screen">
<path d="M28.1796 43.3254C36.8643 43.3254 43.3793 34.8725 43.3793 25.1604C43.3793 15.4484 36.8643 6.99546 28.1796 6.99546C19.4948 6.99546 12.9798 15.4484 12.9798 25.1604C12.9798 34.8725 19.4948 43.3254 28.1796 43.3254Z" stroke="#F82D98" stroke-width="3.29814"/>
</g>
<g style="mix-blend-mode:screen" filter="url(#filter1_f_1_1846)">
<path d="M28.1796 43.3254C36.8643 43.3254 43.3793 34.8725 43.3793 25.1604C43.3793 15.4484 36.8643 6.99546 28.1796 6.99546C19.4948 6.99546 12.9798 15.4484 12.9798 25.1604C12.9798 34.8725 19.4948 43.3254 28.1796 43.3254Z" stroke="#F82D98" stroke-width="3.29814"/>
</g>
<g style="mix-blend-mode:screen">
<path d="M38.964 38.0056C45.1051 31.8645 43.7347 21.2806 36.8673 14.4131C33.4577 11.0035 29.2096 8.52607 25.0191 7.62205C20.8127 6.71463 16.4956 7.37731 13.3438 10.5291C10.2527 13.6202 9.08827 18.3098 9.4774 22.9233C9.86857 27.561 11.8412 32.3785 15.3716 35.9088C22.2391 42.7763 32.823 44.1466 38.964 38.0056Z" stroke="white" stroke-width="3.29814"/>
</g>
<g style="mix-blend-mode:screen" filter="url(#filter2_f_1_1846)">
<path d="M42.2932 33.8083C47.0201 26.466 43.1408 16.2767 34.7491 10.8742C26.3573 5.47171 15.4762 6.15842 10.7493 13.5007C6.02244 20.8431 9.9017 31.0323 18.2935 36.4348C26.6852 41.8373 37.5663 41.1506 42.2932 33.8083Z" stroke="#FFFEF0" stroke-width="3.29814"/>
</g>
<g style="mix-blend-mode:screen" filter="url(#filter3_f_1_1846)">
<path d="M51.2207 25.1892C51.2207 20.3454 48.5532 16.1943 44.7064 13.3565C40.8586 10.518 35.679 8.84845 30.0827 8.84846C24.4863 8.84846 19.3067 10.518 15.4589 13.3565C11.6122 16.1943 8.94457 20.3454 8.94457 25.1892C8.94457 30.0331 11.6122 34.1842 15.4589 37.022C19.3067 39.8605 24.4863 41.53 30.0827 41.53C35.679 41.53 40.8586 39.8605 44.7064 37.022C48.5532 34.1842 51.2207 30.0331 51.2207 25.1892Z" stroke="#5833EF" stroke-width="5.69679"/>
</g>
<g style="mix-blend-mode:screen" filter="url(#filter4_f_1_1846)">
<path d="M47.3237 25.1892C47.3237 16.6111 39.3731 10.0478 30.0834 10.0478C20.7937 10.0478 12.8431 16.6111 12.8431 25.1892C12.8431 33.7674 20.7937 40.3307 30.0834 40.3307C39.3731 40.3307 47.3237 33.7674 47.3237 25.1892Z" stroke="#933EFF" stroke-width="3.29814"/>
</g>
<defs>
<filter id="filter0_f_1_1846" x="4.66722" y="3.75267" width="42.8589" height="42.8589" filterUnits="userSpaceOnUse" color-interpolation-filters="sRGB">
<feFlood flood-opacity="0" result="BackgroundImageFix"/>
<feBlend mode="normal" in="SourceGraphic" in2="BackgroundImageFix" result="shape"/>
<feGaussianBlur stdDeviation="1.49916" result="effect1_foregroundBlur_1_1846"/>
</filter>
<filter id="filter1_f_1_1846" x="8.33226" y="2.34813" width="39.6944" height="45.6248" filterUnits="userSpaceOnUse" color-interpolation-filters="sRGB">
<feFlood flood-opacity="0" result="BackgroundImageFix"/>
<feBlend mode="normal" in="SourceGraphic" in2="BackgroundImageFix" result="shape"/>
<feGaussianBlur stdDeviation="1.49916" result="effect1_foregroundBlur_1_1846"/>
</filter>
<filter id="filter2_f_1_1846" x="4.0471" y="2.6848" width="44.9483" height="41.9395" filterUnits="userSpaceOnUse" color-interpolation-filters="sRGB">
<feFlood flood-opacity="0" result="BackgroundImageFix"/>
<feBlend mode="normal" in="SourceGraphic" in2="BackgroundImageFix" result="shape"/>
<feGaussianBlur stdDeviation="1.49916" result="effect1_foregroundBlur_1_1846"/>
</filter>
<filter id="filter3_f_1_1846" x="0.699233" y="0.603042" width="58.7671" height="49.1723" filterUnits="userSpaceOnUse" color-interpolation-filters="sRGB">
<feFlood flood-opacity="0" result="BackgroundImageFix"/>
<feBlend mode="normal" in="SourceGraphic" in2="BackgroundImageFix" result="shape"/>
<feGaussianBlur stdDeviation="2.69848" result="effect1_foregroundBlur_1_1846"/>
</filter>
<filter id="filter4_f_1_1846" x="8.19554" y="5.40037" width="43.7754" height="39.5777" filterUnits="userSpaceOnUse" color-interpolation-filters="sRGB">
<feFlood flood-opacity="0" result="BackgroundImageFix"/>
<feBlend mode="normal" in="SourceGraphic" in2="BackgroundImageFix" result="shape"/>
<feGaussianBlur stdDeviation="1.49916" result="effect1_foregroundBlur_1_1846"/>
</filter>
</defs>
</svg>
